<?xml version="1.0" standalone="no"?>
<!DOCTYPE svg PUBLIC "-//W3C//DTD SVG 20010904//EN"
 "http://www.w3.org/TR/2001/REC-SVG-20010904/DTD/svg10.dtd">
<svg version="1.0" xmlns="http://www.w3.org/2000/svg"
 width="500.000000pt" height="500.000000pt" viewBox="0 0 500.000000 500.000000"
 preserveAspectRatio="xMidYMid meet">
<metadata>
Created by potrace 1.14, written by Peter Selinger 2001-2017
</metadata>
<g transform="translate(0.000000,500.000000) scale(0.100000,-0.100000)"
fill="#000000" stroke="none">
<path d="M3310 3645 c-143 -32 -251 -88 -350 -181 -165 -156 -241 -370 -212
-594 23 -169 75 -274 194 -386 119 -112 278 -175 489 -194 89 -7 125 -15 174
-39 152 -71 224 -216 181 -366 -23 -77 -97 -153 -179 -183 -70 -27 -211 -30
-276 -7 -103 36 -181 125 -196 221 l-6 44 -195 0 -194 0 6 -57 c10 -97 32
-174 75 -260 116 -232 379 -366 689 -350 131 7 200 25 318 83 170 83 293 238
336 424 21 86 20 252 0 343 -70 306 -306 490 -663 517 -69 5 -146 16 -171 25
-70 24 -132 75 -165 136 -27 49 -30 62 -30 144 1 77 5 97 27 141 56 107 158
164 296 164 185 0 310 -84 328 -222 l7 -48 194 0 194 0 -6 48 c-21 152 -62
255 -140 355 -83 106 -221 194 -360 232 -86 23 -283 28 -365 10z"/>
<path d="M907 3623 c-4 -3 -7 -89 -7 -190 l0 -184 180 -284 c99 -157 180 -287
180 -290 0 -2 -80 -6 -177 -7 l-178 -3 0 -670 0 -670 193 -3 192 -2 0 480 0
480 198 0 c226 0 326 10 449 46 170 49 299 130 384 244 104 138 142 328 104
526 -54 280 -278 466 -625 519 -71 11 -196 15 -491 15 -218 0 -399 -3 -402 -7z
m892 -399 c109 -27 194 -82 227 -146 67 -129 15 -287 -116 -353 -41 -21 -151
-55 -178 -55 -7 0 -297 453 -356 558 -12 20 339 17 423 -4z"/>
</g>
</svg>
